<?xml version="1.0" standalone="no"?>
<!DOCTYPE svg PUBLIC "-//W3C//DTD SVG 20010904//EN"
 "http://www.w3.org/TR/2001/REC-SVG-20010904/DTD/svg10.dtd">
<svg version="1.0" xmlns="http://www.w3.org/2000/svg"
 width="1024.000000pt" height="1024.000000pt" viewBox="0 0 1024.000000 1024.000000"
 preserveAspectRatio="xMidYMid meet">

<g transform="translate(0.000000,1024.000000) scale(0.100000,-0.100000)"
fill="#000000" stroke="none">
<path d="M4986 8883 c-4 -4 -49 -11 -99 -15 -187 -15 -385 -45 -512 -77 -22
-6 -58 -14 -80 -20 -22 -5 -57 -14 -77 -20 -21 -6 -53 -15 -70 -20 -18 -5 -51
-15 -73 -24 -22 -8 -76 -29 -120 -45 -44 -16 -114 -44 -155 -62 -41 -17 -96
-40 -121 -49 -94 -37 -360 -187 -524 -298 -222 -149 -283 -197 -429 -334 -55
-52 -120 -111 -142 -130 -60 -49 -243 -256 -310 -349 -13 -19 -38 -53 -55 -75
-16 -22 -41 -56 -54 -75 -13 -19 -37 -53 -53 -75 -153 -216 -372 -678 -442
-930 -5 -16 -14 -46 -20 -65 -7 -19 -16 -51 -20 -70 -5 -19 -14 -53 -20 -75
-6 -22 -15 -58 -20 -80 -5 -22 -14 -60 -20 -85 -12 -51 -28 -143 -41 -245 -10
-72 -31 -415 -30 -495 1 -111 21 -442 30 -505 19 -131 29 -190 40 -232 6 -24
15 -60 21 -80 5 -21 13 -56 18 -78 5 -22 16 -60 24 -85 8 -25 21 -65 28 -90 6
-25 20 -65 30 -90 10 -25 32 -83 50 -130 151 -411 410 -834 725 -1186 106
-118 285 -290 370 -354 18 -14 77 -59 131 -100 170 -130 317 -222 528 -331
156 -80 200 -92 366 -100 153 -7 206 -15 335 -49 44 -12 98 -26 120 -31 22 -6
58 -15 80 -20 22 -6 63 -14 90 -19 28 -5 73 -14 100 -21 28 -6 73 -12 101 -13
28 -1 65 -8 83 -15 20 -9 54 -12 95 -9 42 4 71 1 87 -8 38 -21 336 -19 390 2
33 14 61 16 159 10 103 -6 123 -5 145 10 19 12 37 15 71 10 27 -3 54 -1 67 5
11 6 41 13 66 15 74 5 124 16 148 31 12 8 31 12 42 8 11 -3 33 1 49 9 16 8 32
12 36 9 5 -6 23 -1 116 27 322 98 338 101 453 80 73 -14 113 -2 277 80 372
186 819 547 1065 859 28 35 66 82 85 106 84 103 95 118 238 343 117 182 279
508 350 702 11 30 34 100 50 155 16 55 38 125 47 155 19 60 31 109 46 183 5
26 14 71 19 100 44 219 53 327 53 647 0 281 -5 358 -32 540 -32 208 -81 423
-126 555 -114 330 -127 363 -236 580 -95 192 -157 299 -226 395 -18 25 -52 74
-77 110 -79 117 -145 202 -219 282 -113 125 -318 328 -383 380 -32 26 -75 60
-94 76 -19 15 -46 36 -60 45 -14 9 -45 33 -70 52 -25 19 -67 49 -95 66 -27 17
-88 55 -135 85 -97 61 -440 235 -575 290 -143 58 -379 136 -450 148 -36 6 -95
20 -150 36 -22 7 -67 16 -100 21 -33 5 -89 13 -125 19 -36 6 -105 15 -155 21
-111 13 -618 23 -629 12z m423 -113 c761 -37 1466 -311 2087 -811 336 -271
660 -667 887 -1084 212 -389 362 -879 407 -1324 13 -133 13 -435 -1 -598 -11
-136 -44 -351 -55 -362 -4 -3 -4 64 -1 149 4 128 4 138 -3 60 -23 -253 -42
-363 -63 -361 -35 4 -47 -1 -47 -18 0 -12 -9 -21 -25 -25 -14 -4 -25 -13 -25
-21 0 -8 -4 -15 -10 -15 -5 0 -10 -9 -10 -20 0 -11 -7 -20 -15 -20 -8 0 -15
-8 -15 -19 0 -18 -30 -35 -57 -32 -13 2 -28 -53 -18 -69 3 -5 1 -10 -4 -10 -6
0 -11 -5 -11 -11 0 -5 4 -8 9 -5 5 4 7 -3 4 -15 -4 -12 -8 -16 -13 -10 -3 6
-21 -28 -40 -76 -104 -271 -277 -596 -440 -823 -81 -113 -207 -272 -250 -316
-21 -22 -28 -37 -24 -50 3 -12 3 -14 -3 -8 -5 8 -43 -22 -115 -91 -87 -83
-105 -105 -94 -114 11 -9 19 -5 36 19 12 16 18 30 13 31 -4 1 3 4 17 8 14 4
25 13 25 21 0 7 16 19 35 25 19 6 36 17 36 23 3 25 5 27 14 12 9 -13 11 -13
19 0 5 8 8 17 6 20 -2 4 2 7 10 7 8 0 15 -4 15 -9 0 -4 -5 -8 -12 -8 -9 0 -9
-3 0 -12 10 -10 15 -10 23 2 8 11 12 12 16 3 8 -20 23 -15 23 7 0 26 16 26 23
0 4 -14 -2 -22 -22 -29 -18 -6 -20 -10 -8 -10 10 -1 15 -6 12 -11 -4 -6 -10
-8 -15 -5 -5 3 -12 -4 -15 -16 -4 -12 -12 -18 -20 -15 -9 3 -12 0 -9 -8 7 -17
-161 -176 -187 -176 -11 0 -17 -5 -14 -10 4 -6 1 -9 -6 -8 -7 2 -13 -2 -14 -9
0 -7 -7 -18 -15 -25 -12 -11 -12 -11 -2 4 10 13 10 17 0 21 -9 4 -7 11 10 25
25 23 29 52 7 52 -18 0 -19 12 -4 27 8 8 6 11 -7 10 -13 -1 -19 4 -18 16 2 14
-6 11 -35 -13 -344 -290 -716 -504 -1091 -629 -403 -135 -758 -189 -1169 -178
-308 9 -476 33 -785 113 -270 70 -597 211 -865 372 -47 28 -89 48 -95 45 -6
-3 -8 -3 -4 2 5 5 -8 19 -27 32 -38 26 -50 29 -39 11 4 -8 3 -10 -2 -5 -5 5
-9 12 -8 15 2 13 -117 93 -128 86 -6 -4 -8 -3 -5 3 5 8 -142 133 -156 133 -1
0 -63 57 -136 127 -74 71 -139 128 -145 128 -6 1 -10 6 -9 12 2 7 -15 30 -37
53 -22 23 -40 45 -40 50 0 4 -13 18 -30 31 -16 13 -30 28 -30 32 0 11 -68 96
-95 119 -11 10 -16 17 -11 18 5 0 -1 9 -14 20 -12 11 -26 17 -31 15 -4 -3 -6
6 -3 19 2 14 -1 28 -7 32 -8 5 -9 3 -4 -7 5 -8 4 -11 -1 -6 -5 5 -9 16 -9 25
0 9 -6 16 -13 14 -8 -1 -11 2 -7 8 3 5 -4 25 -17 42 -13 18 -46 70 -74 115
-28 46 -54 80 -59 76 -4 -5 -5 -2 -1 5 8 13 -61 132 -76 132 -5 0 -6 4 -3 10
5 8 -29 88 -44 100 -3 3 -7 12 -9 20 -2 8 -20 56 -41 105 -21 50 -44 108 -51
130 -7 22 -17 45 -22 50 -6 6 -7 4 -3 -7 4 -10 3 -18 -3 -18 -6 0 -17 -3 -26
-6 -11 -4 -16 -1 -16 10 0 9 -11 28 -25 42 -15 15 -24 33 -21 42 5 17 10 106
7 130 0 6 -10 12 -21 12 -13 0 -20 7 -20 20 0 11 -4 20 -10 20 -5 0 -10 6 -10
14 0 7 -13 19 -30 26 -28 12 -30 16 -30 66 0 47 -2 54 -20 54 -14 0 -20 7 -20
21 0 15 -5 19 -15 15 -8 -3 -15 -1 -15 4 0 6 5 10 11 10 12 0 2 62 -12 71 -5
3 -10 24 -12 47 -1 23 -5 42 -9 42 -5 0 -8 7 -8 15 0 8 5 15 11 15 6 0 3 7 -5
16 -9 8 -18 26 -21 40 -16 77 -17 80 -24 61 -16 -42 -32 40 -41 211 -17 285 6
537 76 867 189 880 719 1662 1479 2186 548 377 1189 596 1839 628 83 5 158 9
166 9 8 1 111 -3 229 -8z m1965 -6319 c3 -4 -4 -17 -17 -27 -22 -19 -22 -19
-4 2 9 11 14 24 10 27 -3 4 -4 7 0 7 3 0 8 -4 11 -9z m-44 -45 c0 -3 -4 -8
-10 -11 -5 -3 -10 -1 -10 4 0 6 5 11 10 11 6 0 10 -2 10 -4z m-40 -40 c-19
-18 -130 -88 -130 -82 0 3 26 22 58 43 31 21 59 41 60 45 2 5 9 8 15 8 7 0 5
-6 -3 -14z m-210 -136 c-14 -11 -29 -20 -35 -20 -5 0 4 9 20 20 38 25 48 25
15 0z m-3153 -286 c-5 -5 -57 13 -57 20 0 3 14 0 31 -6 16 -6 28 -12 26 -14z"/>
<path d="M4935 8504 c-202 -19 -500 -75 -665 -123 -328 -97 -726 -286 -955
-454 -333 -244 -616 -521 -790 -772 -22 -31 -67 -94 -100 -139 -91 -124 -271
-461 -239 -449 8 3 14 13 15 22 0 13 2 13 6 1 3 -8 11 -18 16 -22 7 -4 7 -11
0 -20 -12 -16 -124 -293 -147 -363 -56 -178 -124 -538 -147 -779 -15 -158 -6
-507 16 -655 41 -282 139 -617 250 -865 176 -389 417 -725 743 -1039 251 -240
519 -426 857 -592 458 -226 934 -338 1435 -337 513 2 1006 119 1462 348 201
101 483 293 678 463 412 358 821 985 973 1491 118 395 153 641 144 1023 -10
410 -48 633 -170 1004 -19 56 -30 100 -24 96 6 -4 8 0 4 11 -4 10 -7 20 -7 22
0 3 -4 3 -9 0 -4 -3 -7 8 -5 24 2 17 0 30 -4 30 -12 0 -31 60 -25 78 4 14 3
14 -5 3 -8 -11 -11 -7 -14 20 -2 26 -7 34 -21 33 -10 -1 -16 1 -13 4 3 3 1 11
-5 18 -8 10 -6 12 11 9 16 -3 19 -1 12 8 -5 7 -15 30 -22 52 -7 22 -19 47 -26
55 -7 9 -20 33 -29 54 -39 94 -224 366 -380 561 -181 226 -509 517 -765 680
-136 87 -384 214 -540 278 -205 83 -535 172 -750 202 -109 15 -662 29 -765 19z
m457 -339 c151 -44 331 -111 418 -155 192 -96 425 -277 515 -400 30 -41 48
-53 121 -84 47 -19 111 -55 142 -79 31 -24 104 -75 161 -113 123 -81 349 -276
440 -377 215 -243 328 -416 499 -767 69 -140 126 -256 128 -258 4 -5 188 59
199 69 19 18 22 8 13 -40 -17 -93 -75 -216 -170 -358 -15 -23 -28 -47 -28 -54
0 -6 -14 -25 -31 -42 -30 -28 -31 -32 -26 -86 4 -31 11 -180 17 -331 5 -151
15 -284 21 -295 5 -11 27 -32 47 -47 72 -51 158 -137 202 -199 99 -143 110
-162 110 -185 0 -32 -33 -32 -131 1 -85 29 -324 64 -338 49 -4 -5 -29 -79 -55
-164 -26 -85 -61 -193 -78 -238 -26 -70 -29 -85 -17 -93 8 -5 10 -9 4 -9 -33
-2 66 -30 114 -32 33 -2 57 -6 55 -9 -2 -4 5 -9 15 -12 14 -3 18 -1 14 9 -9
24 13 15 27 -11 7 -14 29 -41 49 -60 20 -19 45 -44 55 -55 11 -11 22 -17 25
-14 3 3 -3 12 -14 20 -17 12 -18 16 -5 24 12 7 11 12 -5 30 -10 11 -25 18 -32
16 -7 -3 -13 1 -13 9 0 8 5 15 10 15 6 0 10 7 10 16 0 26 26 44 64 44 20 0 36
5 36 10 0 6 14 10 30 10 17 0 30 5 30 10 0 15 40 12 41 -2 0 -7 5 2 10 20 6
19 15 32 22 29 27 -9 13 -74 -40 -192 -29 -66 -64 -142 -76 -168 l-21 -49 -50
7 c-58 7 -66 11 -66 30 0 8 -7 32 -15 53 -21 51 -54 69 -241 131 -82 27 -200
73 -263 101 -77 35 -134 54 -175 58 l-61 7 -16 62 c-28 108 -103 192 -272 303
-119 78 -117 76 -117 108 -1 41 -32 101 -85 162 -27 30 -73 88 -103 129 -45
61 -53 77 -43 90 6 9 26 38 44 65 l31 48 26 -33 c168 -223 376 -351 617 -381
73 -9 141 -9 292 0 187 12 306 8 470 -14 50 -6 53 -6 43 12 -15 28 -195 200
-287 273 -94 76 -260 159 -390 196 -49 15 -178 39 -285 55 -206 30 -332 67
-351 101 -9 18 -4 19 119 19 266 0 470 36 609 109 171 89 348 283 486 532 41
74 46 95 20 81 -10 -5 -40 -14 -68 -20 -474 -106 -667 -159 -790 -217 -38 -19
-132 -75 -209 -125 -76 -50 -140 -89 -143 -86 -3 2 0 13 5 23 17 32 80 334 92
438 6 55 14 173 17 262 l6 162 -61 93 c-96 146 -110 181 -122 288 -13 123 -41
227 -96 370 -87 222 -213 435 -333 563 -182 193 -482 357 -838 456 l-151 43
-68 -21 c-309 -93 -354 -110 -511 -190 -264 -134 -397 -247 -530 -448 -176
-266 -263 -492 -303 -788 -14 -100 -56 -192 -137 -300 l-45 -60 7 -70 c3 -38
10 -143 15 -233 14 -233 27 -306 121 -688 54 -219 124 -404 186 -496 l31 -47
-50 -63 c-28 -35 -79 -93 -114 -130 -54 -58 -63 -74 -69 -115 -11 -88 -13 -92
-63 -117 -56 -29 -201 -133 -255 -185 -46 -42 -73 -92 -82 -146 -14 -91 -9
-85 -80 -85 -51 0 -80 -7 -142 -34 -43 -19 -147 -60 -232 -90 -84 -30 -187
-74 -229 -98 -69 -39 -78 -47 -82 -78 -5 -31 -9 -35 -45 -42 -76 -13 -70 -18
-146 139 -104 219 -120 257 -115 276 1 6 1 8 -2 3 -5 -10 -40 69 -41 92 -1 7
5 10 12 7 6 -4 5 -1 -4 7 -9 7 -14 19 -11 27 3 8 0 11 -7 7 -10 -7 -15 12 -14
52 1 6 -4 12 -9 12 -6 0 -8 6 -5 14 3 8 1 17 -6 20 -7 2 -5 5 4 5 10 1 19 -9
23 -22 11 -45 45 -77 82 -77 27 0 34 -4 34 -20 0 -13 7 -20 20 -20 13 0 20 -7
20 -20 0 -13 7 -20 20 -20 13 0 20 -7 20 -20 0 -13 7 -20 20 -20 13 0 20 -7
20 -20 0 -17 7 -20 40 -20 33 0 40 3 40 20 0 17 7 20 40 20 33 0 40 -3 40 -20
0 -18 7 -20 60 -20 53 0 60 -2 60 -20 0 -11 -4 -20 -10 -20 -5 0 -10 -4 -10
-10 0 -5 9 -10 19 -10 17 0 38 -32 34 -50 -1 -3 9 -7 23 -8 13 -1 24 3 24 9 0
5 4 8 8 5 4 -2 14 -1 22 4 13 8 13 14 1 42 -52 129 -69 184 -111 348 -53 204
-88 393 -97 527 -5 65 -9 81 -15 63 -6 -20 -7 -18 -4 11 5 43 -13 104 -31 105
-7 1 -22 2 -33 3 -13 0 -20 8 -20 20 0 11 -9 22 -19 26 -23 7 -27 21 -30 100
-2 54 31 373 46 435 11 50 93 330 117 402 53 159 170 393 275 553 25 39 48 75
50 80 17 43 197 262 295 360 261 260 426 387 721 551 28 15 59 34 69 43 11 9
16 10 12 4 -4 -7 -5 -13 -2 -13 3 0 23 26 45 58 99 144 308 302 541 410 142
66 494 179 562 181 21 1 106 -19 190 -44z m8 -200 c158 -45 284 -101 422 -184
228 -139 340 -250 466 -461 120 -202 190 -387 223 -590 17 -107 42 -177 116
-329 l65 -133 0 -147 c-1 -209 -19 -352 -69 -556 -11 -44 -28 -116 -38 -160
-20 -90 -84 -299 -90 -293 -2 2 5 37 16 78 21 80 49 276 49 341 0 26 7 47 20
61 11 12 21 18 21 12 4 -27 18 80 18 136 1 85 -11 124 -71 244 -63 125 -136
234 -206 309 -78 81 -58 82 25 0 86 -84 142 -167 200 -292 65 -140 67 -144 71
-132 2 6 10 11 18 11 24 0 17 115 -15 241 -20 78 -54 169 -109 289 -44 96 -84
193 -87 215 -4 22 -30 85 -57 141 -40 82 -49 109 -46 144 l3 43 36 -54 c20
-30 42 -65 49 -77 20 -40 23 -16 5 45 -26 90 -93 228 -161 334 -217 334 -495
565 -818 678 -112 40 -225 66 -236 55 -5 -5 -10 -22 -13 -39 -3 -24 -4 -21 -6
13 -1 53 -2 53 -184 7 -174 -43 -224 -64 -374 -153 -261 -155 -394 -293 -551
-577 -66 -119 -138 -298 -148 -367 -3 -24 -8 -50 -11 -58 -3 -8 -7 -31 -10
-50 -2 -19 -15 -66 -29 -105 -14 -38 -33 -97 -41 -130 -8 -33 -26 -94 -40
-135 -54 -160 -63 -208 -63 -339 1 -69 5 -146 11 -171 5 -25 12 -74 14 -110 7
-105 -15 -35 -31 99 -35 296 -29 422 26 532 47 92 91 208 101 269 21 117 122
426 171 525 137 272 334 487 601 655 98 61 286 143 402 174 55 15 105 29 110
32 25 10 131 -8 245 -41z m371 -749 c113 -126 215 -270 293 -411 68 -123 87
-170 39 -100 -50 74 -274 380 -319 435 -25 30 -54 72 -65 92 -10 21 -34 54
-52 75 -31 36 -31 36 -4 19 15 -10 64 -60 108 -110z m-554 -299 c-2 -23 -3 -1
-3 48 0 50 1 68 3 42 2 -26 2 -67 0 -90z m901 82 c-3 -8 -7 -3 -11 10 -4 17
-3 21 5 13 5 -5 8 -16 6 -23z m-560 -205 c179 -65 298 -125 362 -184 l55 -50
-95 44 c-52 24 -173 72 -267 107 -95 35 -173 70 -173 76 0 7 -13 19 -30 28
-16 9 -30 18 -30 20 0 15 65 0 178 -41z m-258 -91 c8 -9 -74 8 -84 17 -4 5 11
4 35 -1 24 -6 46 -13 49 -16z m37 -9 c-3 -3 -12 -4 -19 -1 -8 3 -5 6 6 6 11 1
17 -2 13 -5z m642 -251 c2 -2 0 -3 -6 -3 -6 0 -21 9 -34 21 l-24 20 30 -17
c17 -10 32 -19 34 -21z m-831 -230 c-10 -2 -26 -2 -35 0 -10 3 -2 5 17 5 19 0
27 -2 18 -5z m-160 -10 c-10 -2 -26 -2 -35 0 -10 3 -2 5 17 5 19 0 27 -2 18
-5z m-80 -10 c-10 -2 -26 -2 -35 0 -10 3 -2 5 17 5 19 0 27 -2 18 -5z m-976
-83 c-47 -80 -66 -101 -35 -39 18 37 72 119 78 119 2 0 -17 -36 -43 -80z
m1048 61 c0 -10 116 -18 373 -27 137 -5 167 -9 163 -20 -3 -9 2 -14 14 -14 11
0 20 -4 20 -9 0 -5 30 -14 68 -21 37 -6 98 -22 136 -34 l69 -23 -39 -15 c-21
-9 -80 -30 -131 -47 -151 -50 -240 -96 -268 -140 -26 -38 -55 -149 -55 -210 0
-27 -3 -32 -17 -26 -73 28 -148 28 -214 1 -14 -6 -17 3 -22 56 -2 35 -17 96
-32 136 -27 71 -29 74 -88 104 -34 17 -102 46 -152 65 -115 44 -155 63 -155
73 0 5 9 6 20 3 12 -3 20 0 20 8 0 7 2 10 6 7 3 -3 35 5 72 18 37 13 75 24 85
24 25 0 51 26 34 34 -6 3 -2 3 9 1 13 -3 28 1 37 10 9 8 24 16 34 16 16 1 16
2 1 6 -10 2 -15 10 -11 19 6 15 23 19 23 5z m-450 -101 c0 -5 -8 -10 -17 -10
-15 0 -16 2 -3 10 19 12 20 12 20 0z m-680 -110 c-17 -33 -33 -60 -35 -60 -3
0 8 27 25 60 17 33 33 60 35 60 3 0 -8 -27 -25 -60z m2635 -1 c11 -17 -1 -21
-15 -4 -8 9 -8 15 -2 15 6 0 14 -5 17 -11z m-1965 -49 c3 -3 21 -11 40 -17
l35 -11 -45 -1 c-25 -1 -72 -8 -103 -16 -69 -18 -70 -18 -62 -5 4 6 10 8 15 5
4 -3 11 2 14 11 4 9 14 14 24 12 9 -3 31 1 47 8 17 8 23 13 13 14 -9 0 -19 4
-22 9 -7 10 36 2 44 -9z m1443 -6 c29 -9 57 -22 62 -29 6 -7 20 -15 33 -19 12
-4 20 -11 17 -15 -2 -5 -30 1 -62 12 -32 11 -91 22 -131 25 l-73 5 38 18 c48
22 54 22 116 3z m-165 -138 c-2 -15 -10 -21 -28 -21 -31 0 -40 33 -14 52 22
16 46 -1 42 -31z m-1422 -37 c110 -87 130 -98 206 -110 46 -8 87 -6 173 7 109
16 145 15 145 -5 0 -5 -9 -13 -20 -16 -33 -11 -12 -24 22 -14 19 5 36 5 43 -1
6 -5 25 -10 43 -12 46 -3 26 -20 -76 -63 -119 -50 -190 -65 -307 -65 -141 0
-274 40 -342 103 -22 20 -32 44 -14 33 18 -11 34 26 32 74 -1 41 2 50 19 55
23 7 20 37 -6 63 -14 13 -18 22 -10 22 2 0 44 -32 92 -71z m148 36 c4 -19 20
-48 37 -65 41 -41 112 -43 158 -4 17 14 31 32 31 40 0 24 35 15 65 -16 35 -36
31 -41 -54 -65 -133 -40 -221 -25 -285 46 -39 43 -45 72 -18 88 36 22 59 13
66 -24z m1437 20 l30 -16 -29 -37 c-54 -68 -83 -83 -182 -96 -57 -8 -138 15
-181 51 l-32 27 34 29 c31 26 35 27 44 10 6 -10 24 -32 42 -50 26 -28 38 -33
76 -33 57 0 101 34 118 91 14 44 31 49 80 24z m-1302 -8 c13 -17 5 -27 -24
-27 -27 0 -35 8 -28 26 7 18 37 18 52 1z m1446 -7 c-3 -5 -1 -10 4 -10 6 0 11
-18 11 -40 0 -33 3 -40 20 -40 11 0 20 7 20 16 0 10 6 13 18 10 9 -3 23 -1 31
4 18 11 40 -15 41 -47 0 -29 -99 -124 -165 -157 -113 -58 -287 -69 -438 -30
-51 13 -261 90 -276 101 -14 10 11 12 34 3 18 -7 32 -7 39 -1 18 15 78 16 103
3 27 -15 73 -33 73 -28 0 1 -25 20 -55 41 -71 49 -62 64 27 46 139 -28 164
-30 222 -21 72 11 131 39 188 89 23 21 57 45 73 54 36 19 38 20 30 7z m1667
-23 c-15 -16 -43 -27 -86 -35 -36 -7 -136 -33 -223 -58 -87 -26 -194 -55 -238
-64 -115 -26 -232 -76 -365 -156 -40 -25 -43 -25 -26 -5 23 26 177 119 256
155 30 14 98 37 150 51 52 14 174 48 270 75 183 51 206 56 254 59 l29 1 -21
-23z m-2273 -70 c-24 -24 -46 -41 -49 -39 -5 4 78 82 88 82 2 0 -15 -19 -39
-43z m-584 -3 c15 -19 25 -38 22 -40 -3 -3 -14 11 -26 30 -12 19 -27 37 -34
40 -8 3 -8 5 -1 5 7 1 24 -15 39 -35z m-1061 -263 c14 -85 24 -156 22 -158 -6
-7 -53 205 -60 272 -12 112 11 42 38 -114z m1526 58 c248 -87 277 -93 440 -93
109 -1 161 4 210 17 67 18 181 70 238 107 47 32 39 13 -18 -40 -107 -100 -222
-135 -440 -134 -171 0 -157 -3 -475 108 -71 25 -140 46 -152 46 -12 0 -96 -29
-185 -64 -225 -89 -401 -116 -550 -85 -66 14 -230 94 -272 134 -18 17 -25 25
-17 19 37 -27 142 -73 211 -93 46 -14 118 -24 185 -27 143 -8 246 14 455 94
85 33 171 60 190 61 19 1 100 -22 180 -50z m-96 -448 c35 -53 92 -145 128
-206 36 -60 125 -207 198 -325 126 -203 506 -829 557 -915 25 -43 28 -55 14
-55 -4 0 -71 -38 -148 -84 -77 -46 -180 -105 -229 -131 -75 -40 -350 -200
-525 -305 -76 -46 -73 -47 -224 38 -77 43 -160 91 -185 108 -67 47 -250 153
-385 224 -66 35 -149 82 -185 105 -36 23 -74 45 -85 49 -18 7 -18 9 -5 19 15
11 41 53 157 245 25 42 60 100 78 127 18 28 70 113 115 190 76 128 236 389
353 575 25 41 64 106 84 144 43 78 155 250 186 283 11 12 24 20 30 16 5 -3 37
-49 71 -102z m1826 -82 c207 -40 383 -110 505 -202 93 -70 150 -123 139 -130
-13 -7 -31 3 -151 85 -179 122 -338 190 -568 242 -157 36 -156 36 -90 30 33
-3 107 -14 165 -25z m-2905 -95 c86 -205 171 -343 291 -472 89 -97 67 -92 -28
6 -173 178 -276 360 -312 551 -9 50 -1 37 49 -85z m2035 9 c-25 -100 -68 -186
-144 -288 -96 -127 -267 -298 -283 -282 -3 4 34 48 82 99 111 118 202 255 290
436 38 79 71 139 73 133 2 -6 -6 -50 -18 -98z m138 -311 c4 -75 1 -102 -18
-163 -23 -73 -36 -80 -28 -13 2 19 2 34 -2 34 -3 0 -18 -20 -35 -45 -36 -54
-44 -51 -17 7 37 81 50 124 63 206 16 104 30 94 37 -26z m-2472 -20 c-56 -76
-65 -108 -73 -249 -8 -156 -24 -131 -26 43 -1 86 2 116 14 135 26 38 111 130
116 125 3 -3 -11 -27 -31 -54z m2623 6 c55 -74 69 -106 82 -185 9 -56 8 -84
-5 -158 -19 -99 -53 -214 -69 -230 -7 -7 -8 -4 -3 10 10 28 23 109 29 180 l5
60 -29 -60 c-49 -101 -83 -129 -59 -48 60 202 64 275 20 395 -34 94 -33 88
-20 88 5 0 27 -24 49 -52z m-4374 -199 c3 -31 3 -37 -3 -19 -15 43 -23 97 -12
79 5 -9 12 -36 15 -60z m4655 -135 c138 -103 172 -146 183 -234 13 -102 -28
-362 -82 -510 l-20 -55 5 50 c3 41 2 45 -5 21 -6 -15 -13 -53 -17 -85 -11 -91
-23 -95 -24 -6 0 51 9 116 24 180 31 128 46 236 46 334 0 62 -5 87 -25 128
-14 28 -34 58 -43 67 -18 15 -19 11 -35 -102 -28 -196 -101 -412 -210 -625
-77 -149 -88 -165 -105 -144 -8 10 3 42 43 129 68 147 81 198 22 93 -108 -194
-301 -513 -385 -635 -71 -105 -120 -168 -232 -303 -41 -49 -84 -101 -96 -115
-11 -14 -26 -23 -33 -21 -13 5 6 36 209 349 489 756 626 1028 701 1390 9 41 6
86 -7 133 -8 27 6 21 86 -39z m-3150 19 c-12 -16 -53 -55 -92 -88 -115 -97
-113 -93 -113 -262 0 -134 -1 -142 -13 -102 -7 24 -14 91 -15 149 -2 99 0 108
26 153 29 49 88 99 165 138 24 13 45 26 48 31 3 4 7 8 10 8 3 0 -4 -12 -16
-27z m2820 -43 c-6 -23 -13 -40 -15 -38 -2 2 1 23 7 46 6 24 13 41 15 38 2 -2
-1 -23 -7 -46z m774 -365 c3 -9 10 -14 15 -11 15 10 292 -83 379 -126 28 -15
28 -32 -8 -153 -17 -58 -28 -85 -27 -65 2 28 -5 43 -33 73 -41 46 -59 75 -60
100 0 9 -6 17 -12 18 -7 0 -21 2 -30 4 -10 2 -17 0 -17 -3 5 -35 -4 -51 -33
-61 -18 -6 -46 -11 -63 -11 -72 0 -75 -1 -81 -28 -3 -15 -9 -36 -14 -47 -10
-21 -9 -1 10 153 7 59 6 89 -2 107 -6 14 -14 25 -18 25 -4 0 -17 -46 -30 -102
-28 -129 -83 -321 -117 -413 -66 -180 -166 -425 -174 -425 -9 0 -8 2 86 280
88 261 144 480 157 617 l11 112 27 -14 c15 -8 30 -21 34 -30z m-4019 -2 c10
-54 88 -328 129 -453 38 -116 124 -331 239 -600 92 -214 147 -350 141 -350 -7
0 -40 71 -117 250 -41 96 -98 222 -125 280 -27 58 -53 116 -57 130 -4 14 -34
86 -65 160 -62 146 -107 282 -146 442 -14 56 -32 115 -40 130 -17 32 -11 48
15 48 14 0 21 -10 26 -37z m-75 -3 c0 -10 -6 -24 -12 -30 -15 -13 -421 -149
-427 -144 -16 15 57 53 195 103 87 32 175 65 194 74 46 20 50 20 50 -3z m625
-55 c40 -100 161 -340 248 -491 67 -115 169 -272 402 -619 112 -167 372 -526
408 -562 23 -25 27 -33 14 -33 -10 0 -59 54 -117 128 -55 70 -143 174 -195
232 -133 148 -185 215 -290 375 -50 77 -131 200 -179 273 -148 225 -206 349
-287 615 -52 173 -54 210 -4 82z m4082 49 c-3 -3 -12 -4 -19 -1 -8 3 -5 6 6 6
11 1 17 -2 13 -5z m-4660 -314 c46 -158 148 -436 209 -569 51 -110 33 -98 -25
17 -69 138 -153 354 -192 492 -61 221 -66 244 -61 264 5 17 7 15 15 -14 5 -19
29 -105 54 -190z m4537 131 c16 -18 17 -25 2 -103 -22 -116 -69 -276 -95 -323
-12 -22 -20 -31 -16 -21 23 77 65 339 65 414 0 57 13 67 44 33z m-137 -223
c-3 -8 -6 -5 -6 6 -1 11 2 17 5 13 3 -3 4 -12 1 -19z m-1433 -20 c-29 -57
-343 -490 -643 -887 -202 -267 -311 -417 -311 -428 0 -21 -16 -15 -27 10 -12
24 -296 404 -458 612 -56 72 -169 220 -251 330 -82 110 -178 237 -212 282 -60
79 -72 103 -53 103 23 0 338 -167 438 -232 62 -40 150 -95 195 -121 46 -26
110 -65 143 -86 33 -20 93 -55 133 -77 l72 -39 43 24 c23 13 135 81 249 150
262 159 415 248 477 276 27 13 79 44 117 69 38 25 77 46 87 46 17 0 17 -2 1
-32z"/>
<path d="M2602 4980 c0 -14 2 -19 5 -12 2 6 2 18 0 25 -3 6 -5 1 -5 -13z"/>
<path d="M5334 5798 l-19 -23 23 19 c21 18 27 26 19 26 -2 0 -12 -10 -23 -22z"/>
<path d="M4357 5681 c-3 -12 1 -22 9 -25 9 -3 14 2 14 14 0 26 -17 34 -23 11z"/>
<path d="M5211 4490 c3 -428 6 -501 19 -513 8 -8 53 -29 100 -47 47 -19 162
-67 255 -108 273 -119 435 -184 450 -180 11 2 2 21 -31 68 -25 36 -93 144
-151 240 -59 96 -137 223 -174 282 -38 58 -97 155 -132 215 -35 59 -101 168
-146 241 -45 73 -102 171 -127 218 -25 46 -50 84 -56 84 -7 0 -9 -166 -7 -500z"/>
<path d="M5162 4885 c0 -16 2 -22 5 -12 2 9 2 23 0 30 -3 6 -5 -1 -5 -18z"/>
<path d="M4696 4137 c3 -10 9 -15 12 -12 3 3 0 11 -7 18 -10 9 -11 8 -5 -6z"/>
<path d="M4622 4028 c-7 -7 -12 -19 -12 -27 0 -19 23 1 26 24 3 18 1 18 -14 3z"/>
<path d="M4580 3965 c-6 -8 -8 -20 -4 -26 4 -8 3 -9 -4 -5 -7 4 -21 -13 -37
-44 -14 -27 -22 -50 -19 -50 11 0 44 42 44 56 0 7 11 24 25 38 25 25 32 46 16
46 -5 0 -14 -7 -21 -15z"/>
<path d="M5200 3485 c0 -239 3 -435 6 -435 4 0 59 31 123 68 128 76 377 218
486 277 39 21 108 60 155 87 47 27 91 52 98 56 29 15 13 27 -93 68 -60 23
-204 82 -320 132 -203 87 -437 182 -449 182 -3 0 -6 -196 -6 -435z"/>
<path d="M5020 3846 c-80 -35 -215 -94 -300 -131 -85 -37 -208 -87 -273 -110
-65 -23 -119 -46 -120 -51 -1 -5 20 -20 47 -32 27 -13 151 -83 275 -155 482
-278 534 -308 538 -304 6 7 -9 847 -16 847 -3 0 -71 -29 -151 -64z"/>
<path d="M4466 3773 c-6 -14 -5 -15 5 -6 7 7 10 15 7 18 -3 3 -9 -2 -12 -12z"/>
<path d="M5895 3173 c-49 -31 -142 -86 -205 -123 -84 -49 -441 -266 -468 -285
-4 -3 -4 -556 0 -560 2 -2 40 44 84 103 44 59 205 274 357 477 152 204 291
387 308 408 16 20 27 37 22 37 -4 -1 -48 -26 -98 -57z"/>
<path d="M4557 3051 c69 -86 141 -181 161 -211 20 -30 80 -110 133 -176 53
-67 129 -168 169 -225 41 -57 92 -129 114 -159 l41 -55 -3 260 c-3 250 -6 295
-18 282 -4 -3 -11 -1 -18 4 -15 14 -248 155 -371 225 -55 32 -152 92 -216 135
l-116 77 124 -157z m603 -361 c0 -5 -4 -10 -10 -10 -5 0 -10 5 -10 10 0 6 5
10 10 10 6 0 10 -4 10 -10z m0 -180 c0 -60 -2 -110 -4 -110 -28 0 -36 16 -36
71 0 62 19 149 32 149 4 0 8 -49 8 -110z"/>
<path d="M2200 6554 c0 -8 5 -12 10 -9 6 4 8 11 5 16 -9 14 -15 11 -15 -7z"/>
<path d="M1851 4754 c0 -11 3 -14 6 -6 3 7 2 16 -1 19 -3 4 -6 -2 -5 -13z"/>
<path d="M1872 4620 c0 -14 2 -19 5 -12 2 6 2 18 0 25 -3 6 -5 1 -5 -13z"/>
<path d="M8463 4304 c-3 -8 -2 -19 4 -25 5 -5 9 1 11 16 2 28 -6 33 -15 9z"/>
</g>
</svg>